<svg xmlns="http://www.w3.org/2000/svg"  viewBox="0 0 60 60" width="49px" height="49px"><polygon fill="#e21800" points="1,29.019 1.032,29 1,28.981"/><polygon fill="#e21800" points="59,28.981 58.968,29 59,29.019"/><polygon fill="#e21800" points="30,12 1.032,29 6.555,32.241 1,35.494 6.534,38.742 6.533,38.741 1,41.981 30,59 59,41.981 53.467,38.741 53.466,38.742 59,35.494 53.445,32.241 58.968,29"/><polygon fill="#bf4d90" points="59,29.019 30,12 1,29.019 1,28.981 30,46 59,28.981"/><polygon fill="#75348b" points="30,46 6.555,32.241 1,35.494 30,52.513 59,35.494 53.445,32.241"/><polygon fill="#bf4d90" points="30,52.513 6.533,38.741 1,41.981 30,59 59,41.981 53.467,38.741"/><circle cx="30" cy="18" r="17" fill="#57abc1"/><polygon fill="#00788c" points="35,20 30,18 25,20 30,10"/><polygon fill="#006777" points="35,20 30,18 25,20 30,26"/><path fill="#4d007e" d="M30,53.513c-0.175,0-0.35-0.046-0.506-0.138l-29-17.019C0.188,36.177,0,35.849,0,35.494 c0-0.355,0.188-0.684,0.495-0.863l5.555-3.253c0.312-0.183,0.699-0.182,1.011,0.001L30,44.841l22.939-13.462 c0.312-0.183,0.699-0.184,1.011-0.001l5.555,3.253C59.812,34.811,60,35.139,60,35.494c0,0.354-0.188,0.683-0.494,0.862l-29,17.019 C30.35,53.467,30.175,53.513,30,53.513z M2.977,35.495L30,51.354l27.023-15.858L53.445,33.4L30.506,46.862 c-0.312,0.184-0.7,0.184-1.012,0L6.555,33.4L2.977,35.495z"/><path fill="#4d007e" d="M30,60c-0.175,0-0.35-0.046-0.506-0.138l-29-17.02C0.188,42.663,0,42.335,0,41.979 c0-0.354,0.188-0.683,0.495-0.862l5.533-3.239c0.312-0.182,0.699-0.183,1.011,0.001L30,51.354l22.961-13.475 c0.312-0.184,0.699-0.183,1.011-0.001l5.533,3.239C59.812,41.297,60,41.625,60,41.979c0,0.355-0.188,0.684-0.494,0.863l-29,17.02 C30.35,59.954,30.175,60,30,60z M2.978,41.981L30,57.841l27.022-15.859L53.468,39.9L30.506,53.375c-0.312,0.184-0.7,0.184-1.012,0 L6.532,39.9L2.978,41.981z"/><path fill="#4d007e" d="M30,47c-0.175,0-0.35-0.046-0.506-0.138l-29-17.02C0.188,29.663,0,29.335,0,28.979 c0-0.354,0.188-0.683,0.495-0.862l12.418-7.271c0.276-0.161,0.612-0.182,0.905-0.054c0.293,0.128,0.507,0.388,0.577,0.699 C16.009,28.739,22.573,34,30,34s13.991-5.261,15.606-12.509c0.07-0.312,0.284-0.571,0.577-0.699 c0.293-0.128,0.629-0.107,0.905,0.054l12.418,7.271C59.812,28.297,60,28.625,60,28.979c0,0.355-0.188,0.684-0.494,0.863l-29,17.02 C30.35,46.954,30.175,47,30,47z M2.977,28.981L30,44.841l27.023-15.859l-9.81-5.744C44.935,30.708,37.902,36,30,36 s-14.935-5.292-17.213-12.763L2.977,28.981z"/><path fill="#4d007e" d="M30,36c-9.925,0-18-8.075-18-18S20.075,0,30,0s18,8.075,18,18S39.925,36,30,36z M30,2 c-8.823,0-16,7.178-16,16s7.177,16,16,16s16-7.178,16-16S38.823,2,30,2z"/><path fill="#4d007e" d="M17,19c-0.552,0-1-0.447-1-1c0-7.72,6.28-14,14-14c0.552,0,1,0.447,1,1s-0.448,1-1,1 c-6.617,0-12,5.383-12,12C18,18.553,17.552,19,17,19z"/><path fill="#4d007e" d="M30,32c-0.552,0-1-0.447-1-1s0.448-1,1-1c6.617,0,12-5.383,12-12c0-0.553,0.448-1,1-1s1,0.447,1,1 C44,25.72,37.72,32,30,32z"/><path fill="#4d007e" d="M35,21c-0.125,0-0.251-0.023-0.371-0.071L30,19.077l-4.629,1.852 c-0.385,0.151-0.826,0.053-1.107-0.252c-0.281-0.305-0.344-0.753-0.159-1.124l5-10c0.339-0.678,1.45-0.678,1.789,0l5,10 c0.186,0.371,0.123,0.819-0.159,1.124C35.543,20.887,35.274,21,35,21z M30,17c0.126,0,0.252,0.023,0.371,0.071l2.558,1.023 L30,12.236l-2.929,5.858l2.558-1.023C29.748,17.023,29.874,17,30,17z"/><path fill="#4d007e" d="M30,27c-0.297,0-0.578-0.132-0.768-0.359l-5-6c-0.205-0.246-0.28-0.575-0.201-0.886 c0.079-0.311,0.301-0.564,0.598-0.684l5-2c0.238-0.096,0.504-0.096,0.743,0l5,2c0.297,0.119,0.52,0.373,0.598,0.684 c0.078,0.311,0.004,0.64-0.201,0.886l-5,6C30.578,26.868,30.297,27,30,27z M26.649,20.417L30,24.438l3.351-4.021L30,19.077 L26.649,20.417z"/></svg>